<?xml version="1.0" encoding="UTF-8" standalone="no"?>
<svg
   xmlns:dc="http://purl.org/dc/elements/1.1/"
   xmlns:cc="http://creativecommons.org/ns#"
   xmlns:rdf="http://www.w3.org/1999/02/22-rdf-syntax-ns#"
   xmlns:svg="http://www.w3.org/2000/svg"
   xmlns="http://www.w3.org/2000/svg"
   xmlns:sodipodi="http://sodipodi.sourceforge.net/DTD/sodipodi-0.dtd"
   xmlns:inkscape="http://www.inkscape.org/namespaces/inkscape"
   sodipodi:docname="logo.svg"
   inkscape:version="1.0 (4035a4fb49, 2020-05-01)"
   id="svg8"
   version="1.1"
   viewBox="0 0 184.05595 54.646712"
   height="54.646709mm"
   width="184.05594mm">
  <defs
     id="defs2">
    <rect
       id="rect848"
       height="31.012972"
       width="102.05859"
       y="191.028"
       x="76.718704" />
    <rect
       x="76.718704"
       y="191.028"
       width="102.05859"
       height="31.012972"
       id="rect972" />
  </defs>
  <sodipodi:namedview
     inkscape:document-rotation="0"
     fit-margin-bottom="0"
     fit-margin-right="0"
     fit-margin-left="0"
     fit-margin-top="0"
     inkscape:window-maximized="1"
     inkscape:window-y="28"
     inkscape:window-x="0"
     inkscape:window-height="1024"
     inkscape:window-width="1920"
     units="mm"
     inkscape:snap-bbox="false"
     inkscape:snap-global="true"
     inkscape:guide-bbox="true"
     showguides="true"
     showgrid="false"
     inkscape:current-layer="layer1"
     inkscape:document-units="mm"
     inkscape:cy="-40.702973"
     inkscape:cx="511.01188"
     inkscape:zoom="0.98994949"
     inkscape:pageshadow="2"
     inkscape:pageopacity="0.0"
     borderopacity="1.0"
     bordercolor="#666666"
     pagecolor="#ffffff"
     id="base">
    <sodipodi:guide
       inkscape:locked="false"
       id="guide920"
       orientation="0,1"
       position="28.691827,54.432323" />
    <sodipodi:guide
       inkscape:locked="false"
       id="guide922"
       orientation="0,1"
       position="66.145841,0.60261597" />
  </sodipodi:namedview>
  <metadata
     id="metadata5">
    <rdf:RDF>
      <cc:Work
         rdf:about="">
        <dc:format>image/svg+xml</dc:format>
        <dc:type
           rdf:resource="http://purl.org/dc/dcmitype/StillImage" />
        <dc:title></dc:title>
      </cc:Work>
    </rdf:RDF>
  </metadata>
  <g
     transform="translate(-6.6145835,-230.39764)"
     id="layer1"
     inkscape:groupmode="layer"
     inkscape:label="Layer 1">
    <g
       aria-label="RECIPE LAB"
       transform="matrix(3.1500658,0,0,3.1500658,-166.24822,-370.05396)"
       id="text846"
       style="font-style:normal;font-weight:normal;font-size:10.5833px;line-height:0.85;font-family:sans-serif;letter-spacing:0px;word-spacing:0px;white-space:pre;shape-inside:url(#rect848);fill:#000000;fill-opacity:1;stroke:none;stroke-width:0.32057;stroke-miterlimit:4;stroke-dasharray:none">
      <path
         d="m 83.173116,198.20724 v 0.0672 h -1.4366 l -1.493445,-2.88353 h -1.431432 v 2.88353 h -1.338415 v -7.52406 h 2.666495 q 1.302242,0 2.010207,0.58394 0.713132,0.58394 0.713132,1.68465 0,0.74414 -0.356566,1.2609 -0.356566,0.51676 -1.012855,0.79581 z m -4.361477,-3.89122 h 1.333248 q 0.671791,0 1.02319,-0.33589 0.356566,-0.3359 0.356566,-0.894 0,-0.59428 -0.341063,-0.92501 -0.341064,-0.33073 -1.043861,-0.33073 h -1.32808 z"
         style="font-style:normal;font-variant:normal;font-weight:500;font-stretch:normal;font-family:Heebo;-inkscape-font-specification:'Heebo Medium';stroke-width:0.32057;stroke-miterlimit:4;stroke-dasharray:none"
         id="path885" />
      <path
         d="m 89.038372,197.19956 v 1.07486 h -3.953234 -0.98185 v -7.52406 h 1.338416 3.565662 v 1.08003 h -3.565662 v 2.04122 h 3.074738 v 1.05419 h -3.074738 v 2.27376 z"
         style="font-style:normal;font-variant:normal;font-weight:500;font-stretch:normal;font-family:Heebo;-inkscape-font-specification:'Heebo Medium';stroke-width:0.32057;stroke-miterlimit:4;stroke-dasharray:none"
         id="path887" />
      <path
         d="m 95.849304,195.81463 q -0.06718,0.75448 -0.423745,1.33325 -0.351399,0.57878 -0.992185,0.90434 -0.640785,0.32556 -1.539952,0.32556 -0.925006,0 -1.6123,-0.43408 -0.687294,-0.43925 -1.059363,-1.2454 -0.37207,-0.80615 -0.37207,-1.88619 v -0.59427 q 0,-1.08004 0.377237,-1.88619 0.382405,-0.80615 1.080034,-1.2454 0.702797,-0.43924 1.638138,-0.43924 0.883664,0 1.508947,0.33072 0.625283,0.32557 0.971514,0.91467 0.351398,0.58395 0.428913,1.35392 h -1.333248 q -0.08785,-0.75447 -0.449583,-1.13171 -0.356567,-0.3824 -1.126543,-0.3824 -0.862994,0 -1.30741,0.64078 -0.439248,0.63562 -0.439248,1.83451 v 0.60461 q 0,1.17822 0.408243,1.82934 0.41341,0.65112 1.286739,0.65112 0.537433,0 0.873329,-0.16536 0.341063,-0.17053 0.511595,-0.49092 0.175699,-0.32556 0.23771,-0.82166 z"
         style="font-style:normal;font-variant:normal;font-weight:500;font-stretch:normal;font-family:Heebo;-inkscape-font-specification:'Heebo Medium';stroke-width:0.32057;stroke-miterlimit:4;stroke-dasharray:none"
         id="path889" />
      <path
         d="m 97.084367,198.27442 v -7.52406 h 1.333248 v 7.52406 z"
         style="font-style:normal;font-variant:normal;font-weight:500;font-stretch:normal;font-family:Heebo;-inkscape-font-specification:'Heebo Medium';stroke-width:0.32057;stroke-miterlimit:4;stroke-dasharray:none"
         id="path891" />
      <path
         d="m 102.89278,190.75036 q 0.85266,0 1.47277,0.31006 0.62529,0.30489 0.95085,0.85266 0.32556,0.5426 0.32556,1.24023 0,0.72863 -0.32556,1.25573 -0.3204,0.5271 -0.94051,0.80615 -0.61495,0.27905 -1.48311,0.27905 h -1.55029 v 2.78018 h -1.33841 v -7.52406 z m 0,3.66901 q 0.7183,0 1.05936,-0.33589 0.34623,-0.3359 0.34623,-0.91984 0,-0.36173 -0.14986,-0.66146 -0.14986,-0.30489 -0.46508,-0.48575 -0.31523,-0.18604 -0.79065,-0.18604 h -1.55029 v 2.58898 z"
         style="font-style:normal;font-variant:normal;font-weight:500;font-stretch:normal;font-family:Heebo;-inkscape-font-specification:'Heebo Medium';stroke-width:0.32057;stroke-miterlimit:4;stroke-dasharray:none"
         id="path893" />
      <path
         d="m 111.71392,197.19956 v 1.07486 h -3.95324 -0.98185 v -7.52406 h 1.33842 3.56566 v 1.08003 h -3.56566 v 2.04122 h 3.07474 v 1.05419 h -3.07474 v 2.27376 z"
         style="font-style:normal;font-variant:normal;font-weight:500;font-stretch:normal;font-family:Heebo;-inkscape-font-specification:'Heebo Medium';stroke-width:0.32057;stroke-miterlimit:4;stroke-dasharray:none"
         id="path895" />
      <path
         d="m 77.757443,200.04533 h 1.043861 v 6.83677 h 3.756864 v 0.8785 h -4.800725 z"
         style="letter-spacing:0.484308px"
         id="path897" />
      <path
         d="m 86.959538,201.07369 -1.41593,3.83955 h 2.837027 z m -0.58911,-1.02836 h 1.183387 l 2.940379,7.71527 h -1.085201 l -0.702798,-1.9792 h -3.477812 l -0.702798,1.9792 h -1.100704 z"
         style="letter-spacing:0.484308px"
         id="path899" />
      <path
         d="m 93.148905,204.07608 v 2.82669 h 1.674311 q 0.842323,0 1.245398,-0.34623 0.408242,-0.3514 0.408242,-1.0697 0,-0.72346 -0.408242,-1.06453 -0.403075,-0.34623 -1.245398,-0.34623 z m 0,-3.17292 v 2.32543 h 1.54512 q 0.764809,0 1.136878,-0.28422 0.377237,-0.28939 0.377237,-0.8785 0,-0.58394 -0.377237,-0.87332 -0.372069,-0.28939 -1.136878,-0.28939 z m -1.043861,-0.85783 h 2.666495 q 1.193722,0 1.839675,0.49609 0.645954,0.4961 0.645954,1.41077 0,0.70796 -0.330728,1.12654 -0.330728,0.41858 -0.971514,0.52193 0.769976,0.16536 1.193722,0.69246 0.428913,0.52193 0.428913,1.30741 0,1.03353 -0.702798,1.5968 -0.702797,0.56327 -1.999871,0.56327 h -2.769848 z"
         style="letter-spacing:0.484308px"
         id="path901" />
    </g>
    <g
       aria-label=".IO"
       transform="matrix(3.0889704,0,0,3.0889704,-93.727777,-328.37749)"
       id="text970"
       style="font-style:normal;font-weight:normal;font-size:10.5833px;line-height:0.85;font-family:sans-serif;letter-spacing:0px;word-spacing:0px;white-space:pre;shape-inside:url(#rect972);fill:#000000;fill-opacity:1;stroke:none;stroke-width:0.32057;stroke-miterlimit:4;stroke-dasharray:none">
      <path
         d="m 77.85046,196.96185 h 1.09037 v 1.31257 h -1.09037 z"
         style="letter-spacing:0.484308px;word-spacing:0px;fill:none;stroke:#000000;stroke-width:0.32057;stroke-linejoin:round;stroke-miterlimit:4;stroke-dasharray:none;stroke-opacity:1;paint-order:normal"
         id="path878" />
      <path
         d="m 81.605876,190.55916 h 1.043861 v 7.71526 h -1.043861 z"
         style="letter-spacing:0.484308px;word-spacing:0px;fill:none;fill-opacity:1;stroke:#000000;stroke-width:0.32057;stroke-linejoin:round;stroke-miterlimit:4;stroke-dasharray:none;stroke-opacity:1;paint-order:normal"
         id="path880" />
      <path
         d="m 88.343012,191.26712 q -1.136877,0 -1.808669,0.84749 -0.666624,0.84749 -0.666624,2.30993 0,1.45727 0.666624,2.30476 0.671792,0.84749 1.808669,0.84749 1.136878,0 1.798335,-0.84749 0.666623,-0.84749 0.666623,-2.30476 0,-1.46244 -0.666623,-2.30993 -0.661457,-0.84749 -1.798335,-0.84749 z m 0,-0.84749 q 1.622635,0 2.594149,1.09037 0.971514,1.0852 0.971514,2.91454 0,1.82417 -0.971514,2.91454 -0.971514,1.0852 -2.594149,1.0852 -1.627802,0 -2.604483,-1.0852 -0.971514,-1.0852 -0.971514,-2.91454 0,-1.82934 0.971514,-2.91454 0.976681,-1.09037 2.604483,-1.09037 z"
         style="letter-spacing:0.484308px;word-spacing:0px;fill:none;fill-opacity:1;stroke:#000000;stroke-width:0.32057;stroke-linejoin:round;stroke-miterlimit:4;stroke-dasharray:none;stroke-opacity:1;paint-order:normal"
         id="path882" />
    </g>
    <path
       inkscape:connector-curvature="0"
       id="rect815"
       d="m 11.363746,246.69457 v 31.2365 c 0,3.58224 2.884319,6.46657 6.466574,6.46657 h 20.36451 l 7.906068,-10.01338 5.452541,-6.90512 v -20.78457 z"
       style="fill:#000000;fill-opacity:1;stroke:none;stroke-width:7.44413;stroke-miterlimit:4;stroke-dasharray:none;stroke-dashoffset:0;stroke-opacity:1;paint-order:stroke markers fill" />
    <path
       inkscape:connector-curvature="0"
       id="rect817"
       d="m 29.220106,232.25421 v 2.38428 h -4.426199 c -7.440064,0 -13.430161,4.1696 -13.430161,9.34942 h 40.189693 c 0,-5.17982 -5.989326,-9.34942 -13.429392,-9.34942 H 33.69708 v -2.38428 z"
       style="fill:#000000;fill-opacity:1;stroke:none;stroke-width:6.21131;stroke-miterlimit:4;stroke-dasharray:none;stroke-dashoffset:0;stroke-opacity:1;paint-order:stroke markers fill" />
    <rect
       y="246.69455"
       x="6.6145835"
       height="2.7412908"
       width="5.1960196"
       id="rect855"
       style="fill:#060606;fill-opacity:1;stroke:none;stroke-width:0.689162;stroke-miterlimit:4;stroke-dasharray:none;stroke-dashoffset:0;stroke-opacity:1;paint-order:stroke markers fill" />
    <rect
       style="fill:#060606;fill-opacity:1;stroke:none;stroke-width:0.848538;stroke-miterlimit:4;stroke-dasharray:none;stroke-dashoffset:0;stroke-opacity:1;paint-order:stroke markers fill"
       id="rect875"
       width="7.8771701"
       height="2.7412908"
       x="27.520008"
       y="230.39764" />
    <path
       sodipodi:nodetypes="cccccccccccccccc"
       inkscape:connector-curvature="0"
       id="path824"
       d="m 53.676113,248.80029 v 2.74587 h 1.575675 v 15.38138 l -5.468702,6.92588 -7.906066,10.01338 h 15.812139 15.811365 l -7.905297,-10.01338 -5.468697,-6.92588 v -15.38138 h 1.575674 v -2.74587 H 58.550856 56.82746 Z"
       style="fill:none;fill-opacity:1;stroke:#000000;stroke-width:1.06168;stroke-miterlimit:4;stroke-dasharray:none;stroke-dashoffset:0;stroke-opacity:1;paint-order:stroke markers fill" />
    <circle
       r="1.1440138"
       cy="244.05841"
       cx="55.36718"
       id="path844"
       style="fill:none;fill-opacity:1;stroke:#000000;stroke-width:1.06168;stroke-miterlimit:4;stroke-dasharray:none;stroke-dashoffset:0;stroke-opacity:1;paint-order:stroke markers fill" />
    <circle
       r="2.9843833"
       cy="237.39233"
       cx="60.243988"
       id="path846"
       style="fill:none;fill-opacity:1;stroke:#000000;stroke-width:1.06168;stroke-miterlimit:4;stroke-dasharray:none;stroke-dashoffset:0;stroke-opacity:1;paint-order:stroke markers fill" />
    <path
       style="fill:#000000;fill-opacity:1;stroke:#000000;stroke-width:1.06168;stroke-miterlimit:4;stroke-dasharray:none;stroke-dashoffset:0;stroke-opacity:1;paint-order:stroke markers fill"
       d="M 49.783086,273.85342 41.87702,283.8668 h 15.812139 15.811365 l -7.905297,-10.01338 c -7.753666,4.65108 -6.723885,-4.37879 -15.812141,0 z"
       id="path827"
       inkscape:connector-curvature="0"
       sodipodi:nodetypes="cccccc" />
  </g>
</svg>
