<?xml version="1.0" encoding="UTF-8" standalone="no"?>
<!-- Created with Inkscape (http://www.inkscape.org/) -->

<svg
   xmlns:dc="http://purl.org/dc/elements/1.1/"
   xmlns:cc="http://creativecommons.org/ns#"
   xmlns:rdf="http://www.w3.org/1999/02/22-rdf-syntax-ns#"
   xmlns:svg="http://www.w3.org/2000/svg"
   xmlns="http://www.w3.org/2000/svg"
   xmlns:sodipodi="http://sodipodi.sourceforge.net/DTD/sodipodi-0.dtd"
   xmlns:inkscape="http://www.inkscape.org/namespaces/inkscape"
   width="655.79425"
   height="205.63216"
   viewBox="0 0 173.51222 54.406843"
   version="1.1"
   id="svg8"
   inkscape:version="0.92.4 (unknown)"
   sodipodi:docname="logo.svg">
  <defs
     id="defs2" />
  <sodipodi:namedview
     id="base"
     pagecolor="#ffffff"
     bordercolor="#666666"
     borderopacity="1.0"
     inkscape:pageopacity="0.0"
     inkscape:pageshadow="2"
     inkscape:zoom="0.98994949"
     inkscape:cx="264.94926"
     inkscape:cy="0.061282056"
     inkscape:document-units="mm"
     inkscape:current-layer="layer1"
     showgrid="false"
     showguides="true"
     inkscape:guide-bbox="true"
     inkscape:snap-global="true"
     inkscape:snap-bbox="false"
     units="px"
     inkscape:window-width="1920"
     inkscape:window-height="1022"
     inkscape:window-x="0"
     inkscape:window-y="0"
     inkscape:window-maximized="1"
     fit-margin-top="0"
     fit-margin-left="0"
     fit-margin-right="0"
     fit-margin-bottom="0">
    <sodipodi:guide
       position="28.691825,54.358867"
       orientation="0,1"
       id="guide920"
       inkscape:locked="false" />
    <sodipodi:guide
       position="66.145833,0.52916663"
       orientation="0,1"
       id="guide922"
       inkscape:locked="false" />
  </sodipodi:namedview>
  <metadata
     id="metadata5">
    <rdf:RDF>
      <cc:Work
         rdf:about="">
        <dc:format>image/svg+xml</dc:format>
        <dc:type
           rdf:resource="http://purl.org/dc/dcmitype/StillImage" />
        <dc:title />
      </cc:Work>
    </rdf:RDF>
  </metadata>
  <g
     inkscape:label="Layer 1"
     inkscape:groupmode="layer"
     id="layer1"
     transform="translate(-6.614583,-230.34965)">
    <path
       style="fill:#000000;fill-opacity:1;stroke:none;stroke-width:7.4206543;stroke-miterlimit:4;stroke-dasharray:none;stroke-dashoffset:0;stroke-opacity:1;paint-order:stroke markers fill"
       d="m 11.348768,246.64316 v 31.13799 c 0,3.57095 2.875223,6.44618 6.44618,6.44618 h 20.300286 l 7.881135,-9.9818 5.435345,-6.88334 v -20.71903 z"
       id="rect815"
       inkscape:connector-curvature="0" />
    <path
       style="fill:#000000;fill-opacity:1;stroke:none;stroke-width:6.19171572;stroke-miterlimit:4;stroke-dasharray:none;stroke-dashoffset:0;stroke-opacity:1;paint-order:stroke markers fill"
       d="m 29.148814,232.24835 v 2.37676 h -4.41224 c -7.4166,0 -13.387806,4.15645 -13.387806,9.31993 h 40.062946 c 0,-5.16348 -5.970437,-9.31993 -13.387039,-9.31993 h -4.413006 v -2.37676 z"
       id="rect817"
       inkscape:connector-curvature="0" />
    <path
       style="fill:none;fill-opacity:1;stroke:#000000;stroke-width:1.05833328;stroke-miterlimit:4;stroke-dasharray:none;stroke-dashoffset:0;stroke-opacity:1;paint-order:stroke markers fill"
       d="m 52.998527,249.27141 v 2.73721 h 1.570706 v 15.33287 l -5.451455,6.90404 -7.881133,9.9818 h 15.762272 15.7615 l -7.880366,-9.9818 -5.45145,-6.90404 v -15.33287 h 1.570705 v -2.73721 h -3.14141 -1.71796 z"
       id="path824"
       inkscape:connector-curvature="0"
       sodipodi:nodetypes="cccccccccccccccc" />
    <circle
       style="fill:none;fill-opacity:1;stroke:#000000;stroke-width:1.05833328;stroke-miterlimit:4;stroke-dasharray:none;stroke-dashoffset:0;stroke-opacity:1;paint-order:stroke markers fill"
       id="path844"
       cx="54.684261"
       cy="244.54448"
       r="1.1404059" />
    <circle
       style="fill:none;fill-opacity:1;stroke:#000000;stroke-width:1.05833328;stroke-miterlimit:4;stroke-dasharray:none;stroke-dashoffset:0;stroke-opacity:1;paint-order:stroke markers fill"
       id="path846"
       cx="59.545689"
       cy="237.89943"
       r="2.9749715" />
    <rect
       style="fill:#060606;fill-opacity:1;stroke:none;stroke-width:0.68698889;stroke-miterlimit:4;stroke-dasharray:none;stroke-dashoffset:0;stroke-opacity:1;paint-order:stroke markers fill"
       id="rect855"
       width="5.1796327"
       height="2.7326455"
       x="6.614583"
       y="246.64314" />
    <rect
       y="230.39763"
       x="27.454079"
       height="2.7326455"
       width="7.8523278"
       id="rect875"
       style="fill:#060606;fill-opacity:1;stroke:none;stroke-width:0.84586191;stroke-miterlimit:4;stroke-dasharray:none;stroke-dashoffset:0;stroke-opacity:1;paint-order:stroke markers fill" />
    <g
       aria-label="RECIPE
LAB . IO"
       style="font-style:normal;font-weight:normal;font-size:32.57384491px;line-height:1.25;font-family:sans-serif;letter-spacing:0px;word-spacing:23.8925724px;fill:#000000;fill-opacity:1;stroke:none;stroke-width:0.70555556;stroke-miterlimit:4;stroke-dasharray:none"
       id="text918">
      <path
         d="m 83.730221,230.67539 q 4.332322,0 6.384474,1.66127 2.084726,1.62869 2.084726,4.95122 0,1.85671 -0.684051,3.09452 -0.68405,1.2378 -1.758987,1.987 -1.042363,0.7492 -2.215022,1.14009 l 6.384474,10.42363 h -3.420254 l -5.635275,-9.60929 H 80.24482 v 9.60929 h -2.931646 v -23.25773 z m -0.162869,2.54076 H 80.24482 v 8.63207 h 3.485401 q 2.833925,0 4.136879,-1.10751 1.302954,-1.14008 1.302954,-3.32253 0,-2.28017 -1.368102,-3.22481 -1.368101,-0.97722 -4.2346,-0.97722 z"
         style="font-style:normal;font-variant:normal;font-weight:normal;font-stretch:normal;font-family:'Noto Sans';-inkscape-font-specification:'Noto Sans';word-spacing:23.8925724px;stroke-width:0.70555556;stroke-miterlimit:4;stroke-dasharray:none"
         id="path831" />
      <path
         d="M 110.54155,253.93312 H 97.544585 v -23.25773 h 12.996965 v 2.57334 h -10.06532 v 7.26396 h 9.47899 v 2.54076 h -9.47899 v 8.30633 h 10.06532 z"
         style="font-style:normal;font-variant:normal;font-weight:normal;font-stretch:normal;font-family:'Noto Sans';-inkscape-font-specification:'Noto Sans';word-spacing:23.8925724px;stroke-width:0.70555556;stroke-miterlimit:4;stroke-dasharray:none"
         id="path833" />
      <path
         d="m 125.64411,232.92299 q -3.746,0 -5.89587,2.50818 -2.14987,2.50819 -2.14987,6.87309 0,4.33232 1.987,6.87308 2.01958,2.50818 6.02616,2.50818 1.4984,0 2.8665,-0.26059 1.3681,-0.26059 2.70363,-0.65148 v 2.54076 q -1.30295,0.48861 -2.70363,0.71663 -1.3681,0.22802 -3.28996,0.22802 -3.55055,0 -5.92844,-1.46583 -2.37789,-1.46582 -3.58312,-4.16945 -1.17266,-2.70363 -1.17266,-6.3519 0,-3.51797 1.27038,-6.18903 1.30295,-2.70363 3.81114,-4.20203 2.50819,-1.53097 6.09131,-1.53097 3.68084,0 6.41705,1.36811 l -1.17266,2.47561 q -1.07494,-0.48861 -2.41047,-0.8795 -1.30295,-0.39088 -2.86649,-0.39088 z"
         style="font-style:normal;font-variant:normal;font-weight:normal;font-stretch:normal;font-family:'Noto Sans';-inkscape-font-specification:'Noto Sans';word-spacing:23.8925724px;stroke-width:0.70555556;stroke-miterlimit:4;stroke-dasharray:none"
         id="path835" />
      <path
         d="m 142.83699,253.93312 h -8.40405 v -1.69384 l 2.7362,-0.61891 v -18.59966 l -2.7362,-0.65148 v -1.69384 h 8.40405 v 1.69384 l -2.73621,0.65148 v 18.59966 l 2.73621,0.61891 z"
         style="font-style:normal;font-variant:normal;font-weight:normal;font-stretch:normal;font-family:'Noto Sans';-inkscape-font-specification:'Noto Sans';word-spacing:23.8925724px;stroke-width:0.70555556;stroke-miterlimit:4;stroke-dasharray:none"
         id="path837" />
      <path
         d="m 153.51612,230.67539 q 4.56034,0 6.64507,1.79156 2.08472,1.79157 2.08472,5.04895 0,1.92186 -0.87949,3.6157 -0.84692,1.66126 -2.89907,2.70363 -2.01958,1.04236 -5.50498,1.04236 h -2.67106 v 9.05553 h -2.93164 v -23.25773 z m -0.26059,2.50819 h -2.96422 v 9.18582 h 2.34532 q 3.32253,0 4.95122,-1.07493 1.6287,-1.07494 1.6287,-3.64827 0,-2.2476 -1.46583,-3.35511 -1.43325,-1.10751 -4.49519,-1.10751 z"
         style="font-style:normal;font-variant:normal;font-weight:normal;font-stretch:normal;font-family:'Noto Sans';-inkscape-font-specification:'Noto Sans';word-spacing:23.8925724px;stroke-width:0.70555556;stroke-miterlimit:4;stroke-dasharray:none"
         id="path839" />
      <path
         d="m 180.07907,253.93312 h -12.99696 v -23.25773 h 12.99696 v 2.57334 h -10.06531 v 7.26396 h 9.47899 v 2.54076 h -9.47899 v 8.30633 h 10.06531 z"
         style="font-style:normal;font-variant:normal;font-weight:normal;font-stretch:normal;font-family:'Noto Sans';-inkscape-font-specification:'Noto Sans';word-spacing:23.8925724px;stroke-width:0.70555556;stroke-miterlimit:4;stroke-dasharray:none"
         id="path841" />
      <path
         d="m 77.313174,284.19168 v -23.25772 h 2.931646 v 20.65182 h 10.16304 v 2.6059 z"
         style="font-style:normal;font-variant:normal;font-weight:normal;font-stretch:normal;font-family:'Noto Sans';-inkscape-font-specification:'Noto Sans';word-spacing:23.8925724px;stroke-width:0.70555556;stroke-miterlimit:4;stroke-dasharray:none"
         id="path843" />
      <path
         d="m 108.95663,284.19168 -2.80135,-7.19882 h -9.218401 l -2.768777,7.19882 h -2.96422 l 9.088098,-23.35544 h 2.63849 l 9.05553,23.35544 z m -3.68085,-9.80472 -2.6059,-7.03595 q -0.0977,-0.26059 -0.32574,-0.94464 -0.22802,-0.68406 -0.45604,-1.40068 -0.19544,-0.7492 -0.32574,-1.14008 -0.26059,1.00978 -0.55375,1.987 -0.26059,0.94464 -0.45603,1.4984 l -2.638486,7.03595 z"
         style="font-style:normal;font-variant:normal;font-weight:normal;font-stretch:normal;font-family:'Noto Sans';-inkscape-font-specification:'Noto Sans';word-spacing:23.8925724px;stroke-width:0.70555556;stroke-miterlimit:4;stroke-dasharray:none"
         id="path845" />
      <path
         d="m 115.16754,260.93396 h 6.64507 q 4.33232,0 6.57992,1.30295 2.24759,1.30296 2.24759,4.46262 0,2.05215 -1.14008,3.42025 -1.14009,1.33553 -3.28996,1.72642 v 0.16287 q 1.46582,0.26059 2.63848,0.87949 1.20523,0.6189 1.88928,1.75899 0.68405,1.14008 0.68405,2.93164 0,3.15967 -2.18244,4.88608 -2.14988,1.72641 -5.89587,1.72641 h -8.17604 z m 2.93165,9.90245 h 4.29975 q 2.96422,0 4.07173,-0.94464 1.14008,-0.97722 1.14008,-2.8665 0,-1.92186 -1.3681,-2.7362 -1.33553,-0.84692 -4.29975,-0.84692 h -3.84371 z m 0,2.44304 v 8.43662 h 4.69063 q 3.09452,0 4.29975,-1.20523 1.20523,-1.20523 1.20523,-3.15966 0,-1.82414 -1.27038,-2.93165 -1.2378,-1.14008 -4.46261,-1.14008 z"
         style="font-style:normal;font-variant:normal;font-weight:normal;font-stretch:normal;font-family:'Noto Sans';-inkscape-font-specification:'Noto Sans';word-spacing:23.8925724px;stroke-width:0.70555556;stroke-miterlimit:4;stroke-dasharray:none"
         id="path847" />
      <path
         d="m 137.38591,282.4327 q 0,-1.20524 0.58632,-1.69384 0.58633,-0.48861 1.40068,-0.48861 0.81435,0 1.43325,0.48861 0.6189,0.4886 0.6189,1.69384 0,1.17266 -0.6189,1.69384 -0.6189,0.52118 -1.43325,0.52118 -0.81435,0 -1.40068,-0.52118 -0.58632,-0.52118 -0.58632,-1.69384 z"
         style="fill:none;stroke:#000000;stroke-width:0.70555556;stroke-miterlimit:4;stroke-dasharray:none;stroke-opacity:1"
         id="path849" />
      <path
         d="m 155.31062,284.19168 h -8.40405 v -1.69384 l 2.7362,-0.6189 v -18.59966 l -2.7362,-0.65148 v -1.69384 h 8.40405 v 1.69384 l -2.7362,0.65148 v 18.59966 l 2.7362,0.6189 z"
         style="fill:none;stroke:#000000;stroke-width:0.70555556;stroke-miterlimit:4;stroke-dasharray:none;stroke-opacity:1"
         id="path851" />
      <path
         d="m 180.12681,272.53025 q 0,3.61569 -1.23781,6.31932 -1.20523,2.67106 -3.6157,4.16946 -2.37789,1.49839 -5.86329,1.49839 -3.6157,0 -6.02616,-1.49839 -2.37789,-1.4984 -3.55055,-4.20203 -1.17266,-2.70363 -1.17266,-6.31933 0,-3.55054 1.17266,-6.2216 1.17266,-2.70363 3.55055,-4.20203 2.41046,-1.49839 6.05873,-1.49839 3.48541,0 5.8633,1.49839 2.37789,1.46583 3.58312,4.16946 1.23781,2.67105 1.23781,6.28675 z m -18.37165,0 q 0,4.39747 1.85671,6.93823 1.85671,2.50818 5.79814,2.50818 3.94144,0 5.76557,-2.50818 1.85671,-2.54076 1.85671,-6.93823 0,-4.39747 -1.82413,-6.87308 -1.82414,-2.50819 -5.76558,-2.50819 -3.974,0 -5.83071,2.50819 -1.85671,2.47561 -1.85671,6.87308 z"
         style="fill:none;stroke:#000000;stroke-width:0.70555556;stroke-miterlimit:4;stroke-dasharray:none;stroke-opacity:1"
         id="path853" />
    </g>
    <path
       sodipodi:nodetypes="cccccc"
       inkscape:connector-curvature="0"
       id="path827"
       d="m 49.117778,274.24553 -7.881133,9.9818 h 15.762272 15.7615 l -7.880366,-9.9818 c -7.729213,4.63641 -6.702679,-4.36498 -15.762273,0 z"
       style="fill:#000000;fill-opacity:1;stroke:#000000;stroke-width:1.05833328;stroke-miterlimit:4;stroke-dasharray:none;stroke-dashoffset:0;stroke-opacity:1;paint-order:stroke markers fill" />
  </g>
</svg>
